PathFileType	4	(X/Y/Z)	/Users/niels/Desktop/University/Third Semester/Perception and Action/Exam/Gymnastics Motion Tracking/Code for Gym Tracking/Analyzed Data/Webcam_Backflip/id3_5_baseline_Sports2D/id3_5_baseline_Sports2D_px_person00.trc
DataRate	CameraRate	NumFrames	NumMarkers	Units	OrigDataRate	OrigDataStartFrame	OrigNumFrames
29.81132075471698	29.81132075471698	11	22	m	29.81132075471698	19	159
Frame#	Time	Hip			RHip			RKnee			RAnkle			RBigToe			RSmallToe			RHeel			LHip			LKnee			LAnkle			LBigToe			LSmallToe			LHeel			Neck			Head			Nose			RShoulder			RElbow			RWrist			LShoulder			LElbow			LWrist		
		X1	Y1	Z1	X2	Y2	Z2	X3	Y3	Z3	X4	Y4	Z4	X5	Y5	Z5	X6	Y6	Z6	X7	Y7	Z7	X8	Y8	Z8	X9	Y9	Z9	X10	Y10	Z10	X11	Y11	Z11	X12	Y12	Z12	X13	Y13	Z13	X14	Y14	Z14	X15	Y15	Z15	X16	Y16	Z16	X17	Y17	Z17	X18	Y18	Z18	X19	Y19	Z19	X20	Y20	Z20	X21	Y21	Z21	X22	Y22	Z22
19	0.6373417721518987	0.9654564428058943	-0.5859693363410088	0.0	0.9694152772534078	-0.5826544119968786	0.0	1.0043211213660006	-0.6885914737173486	0.0	0.9787619800651823	-0.8059865077705352	0.0	1.015968798856205	-0.8206287992983983	0.0	1.0085806137392848	-0.8248917820848107	0.0	0.9674326327909947	-0.8205725065610296	0.0	0.9662772579493828	-0.5814024931696017	0.0	0.9957315337026084	-0.6867288460098081	0.0	0.9722943688580703	-0.797676489417284	0.0	1.0150120565336327	-0.8122636101155415	0.0	1.0069531813932895	-0.8109739450217475	0.0	0.9602262672587025	-0.812489095815286	0.0	1.001518411507573	-0.4253559696514797	0.0	1.0265784604254375	-0.3554623785966271	0.0	1.039726862450629	-0.3940541219070413	0.0	0.9924218702040459	-0.4489135295676276	0.0	1.0113916880611156	-0.5273099263021344	0.0	1.0590927702279107	-0.591375949440252	0.0	0.9869657980427305	-0.4460216958836153	0.0	0.9801860364520849	-0.5242063885175093	0.0	0.9951015173906459	-0.5866266512770115	0.0
20	0.6708860759493671	0.9656999805534784	-0.5886575470481012	0.0	0.9706485257857742	-0.5850685039732957	0.0	1.0028470776501481	-0.6910570596657475	0.0	0.9785544909778564	-0.8087206295015257	0.0	1.014194843600455	-0.8239832339003156	0.0	1.006287107110648	-0.8281013078772598	0.0	0.9676702038099122	-0.8231907484517844	0.0	0.9662132524067697	-0.5839089175791772	0.0	0.9950457774173436	-0.6892846043545786	0.0	0.9720683073222097	-0.8008656849952007	0.0	1.013312471899427	-0.8156922496948261	0.0	1.0061035225432802	-0.8144544783268096	0.0	0.959543701445942	-0.8155007995043146	0.0	1.0050038086050024	-0.4283167897008205	0.0	1.0323337148051426	-0.3598831884119367	0.0	1.0443743441149498	-0.3977328226795383	0.0	0.994651003229999	-0.4514839476569873	0.0	0.9992765988743667	-0.5313500409099339	0.0	1.0338156234417348	-0.6014767988543422	0.0	0.990871487369692	-0.44900665263627715	0.0	0.9792326649282646	-0.5282752263275393	0.0	0.9941971482144688	-0.5940663829525304	0.0
21	0.7044303797468354	0.9667609399257658	-0.5906869479527509	0.0	0.97186443052553	-0.586886466093794	0.0	1.0009742756137665	-0.6926424857520139	0.0	0.9783095678667033	-0.8105799068261651	0.0	1.0126796184988516	-0.8257458972032931	0.0	1.00413893414424	-0.8297920310749409	0.0	0.9678996512907234	-0.8247535049182314	0.0	0.9669818921000116	-0.5858255940127035	0.0	0.9940614932311492	-0.6911134363322592	0.0	0.9721094908781159	-0.8031079345326304	0.0	1.011855698432465	-0.817997635437817	0.0	1.005666007344981	-0.8165522771978195	0.0	0.9592966011656516	-0.8172955035460215	0.0	1.0086739629593255	-0.4301305084641725	0.0	1.038027910217241	-0.3634313331318017	0.0	1.049083875486879	-0.40056182765302234	0.0	0.9972229187957756	-0.4525948537903296	0.0	0.986998966912978	-0.5311106142727825	0.0	1.0060181084748034	-0.6041942030581299	0.0	0.99499018827195	-0.4504620375544248	0.0	0.9767502326412668	-0.5288318649844712	0.0	0.9876005185860248	-0.5958254983405418	0.0
22	0.7379746835443037	0.9684724853305816	-0.5914010612780622	0.0	0.9727625851924887	-0.5874963941239487	0.0	0.9986716860080709	-0.6930844974252338	0.0	0.9779628192978854	-0.8112150345282956	0.0	1.0115595136007949	-0.8257142511432042	0.0	1.0022581247736564	-0.8297719110043658	0.0	0.9679262267917611	-0.824997529975083	0.0	0.9685423738612793	-0.5865395591795703	0.0	0.9929337519639011	-0.6917962662288888	0.0	0.9724681536825076	-0.8038253003866432	0.0	1.0109757584569552	-0.8185145551457882	0.0	1.0056931872779666	-0.8167986434572977	0.0	0.9594481003937785	-0.8174552396404895	0.0	1.0123988258709162	-0.43073137106523646	0.0	1.0438192971840912	-0.3657156600207066	0.0	1.0537513254732038	-0.40237195441594525	0.0	0.999961355551958	-0.4521761316410384	0.0	0.9754337934534145	-0.5265539438927765	0.0	0.9777011128425542	-0.5989644923062196	0.0	0.9992593610376668	-0.4502701272597193	0.0	0.972801404956245	-0.5253287363723828	0.0	0.9749227144548557	-0.5908857592798998	0.0
23	0.7715189873417722	0.9703176729367493	-0.5900884435055618	0.0	0.9730870027782281	-0.5862279772333594	0.0	0.9959803558363347	-0.6922025948351824	0.0	0.9774858898124893	-0.8102222829353738	0.0	1.0107182376617336	-0.8239073823523846	0.0	1.000608067918036	-0.8280153137399479	0.0	0.9676587353214284	-0.8236711311996799	0.0	0.9704837974365166	-0.5854062523611439	0.0	0.9917286344155186	-0.6909701380312294	0.0	0.9731368272261245	-0.8024619961755026	0.0	1.0108317613225903	-0.8168912212262294	0.0	1.0061303407938784	-0.8149678606175464	0.0	0.9598008737011857	-0.8156895191336131	0.0	1.0160180817207105	-0.4301104631011083	0.0	1.0498195246554536	-0.36645129459672315	0.0	1.0582963908480205	-0.4029618643224864	0.0	1.0027183618310271	-0.450301829406881	0.0	0.9653553076488208	-0.5181247049308634	0.0	0.951020567545129	-0.5862520700007899	0.0	1.003544172428138	-0.4485219681133353	0.0	0.96778108448978	-0.5176924673937398	0.0	0.9577613015627752	-0.5791331586534708	0.0
24	0.8050632911392405	0.9716967852965342	-0.5864783469277403	0.0	0.9726991533716088	-0.5828331567814986	0.0	0.9930411704142983	-0.6899743560081558	0.0	0.976947601585902	-0.8073771151833538	0.0	1.0100863725487588	-0.8205270955901544	0.0	0.9993377922231281	-0.8246983229192999	0.0	0.9671175322917045	-0.8207199676814136	0.0	0.9722343158021121	-0.5821922277246068	0.0	0.9904064013784777	-0.6885284400392141	0.0	0.9739776620951593	-0.7988418736415878	0.0	1.0112976395870594	-0.8131851971873086	0.0	1.0069105684635868	-0.8111709167452262	0.0	0.9600566124973081	-0.8120388323399539	0.0	1.0193526338890346	-0.4283834301939712	0.0	1.0560551865550936	-0.3655464304081457	0.0	1.062696030863561	-0.402232528212135	0.0	1.0054459278310197	-0.4471951961129703	0.0	0.9572641243571743	-0.5066030094207977	0.0	0.9278144675641841	-0.5675580228877333	0.0	1.007666377843005	-0.44553069415634344	0.0	0.9623198750213307	-0.5064574847487143	0.0	0.9389171328377197	-0.5616495668448321	0.0
25	0.8386075949367088	0.9722587087310277	-0.5809298257664981	0.0	0.9716581854809151	-0.577630801703305	0.0	0.9901016423103371	-0.6865135651440892	0.0	0.9765019753430092	-0.802808823303599	0.0	1.0098340665311585	-0.8158843792276375	0.0	0.9988165904943558	-0.8201607297803757	0.0	0.9663946644039271	-0.8163330955213611	0.0	0.9733655943008289	-0.5771802007616921	0.0	0.9888614928855238	-0.6846636189849362	0.0	0.9747600801785202	-0.7933687929288705	0.0	1.0120598212251772	-0.8078329230922796	0.0	1.0079667532333798	-0.8058798235043663	0.0	0.9599227633007081	-0.8069000370178657	0.0	1.0222688510631712	-0.42580156896928933	0.0	1.0624873132131478	-0.36320639878316713	0.0	1.0670027629767602	-0.4003134557485933	0.0	1.0081768593240867	-0.4431502536801447	0.0	0.9513673360204189	-0.49295667782150493	0.0	0.9092178362117053	-0.5450559882894522	0.0	1.0114661570258685	-0.44166315301734554	0.0	0.9572320950059628	-0.49268201193063527	0.0	0.9213278093513961	-0.5404460950045303	0.0
26	0.8721518987341772	0.9719199635682915	-0.5742040964840229	0.0	0.9701316222019781	-0.5712638094665773	0.0	0.9874604738307522	-0.6819789159109644	0.0	0.9763180915895673	-0.796991035413662	0.0	1.0103226576297557	-0.8103618899276598	0.0	0.9994083922827205	-0.814816506938751	0.0	0.9656700293131498	-0.8108883066958271	0.0	0.9736208222059008	-0.5709461334969267	0.0	0.9870185046980491	-0.6797247197754935	0.0	0.9753025477640745	-0.7868657259376447	0.0	1.0128746231898933	-0.8015624227978706	0.0	1.0092071327105145	-0.7997759802038025	0.0	0.959339583715114	-0.8009021078709856	0.0	1.0247701747629392	-0.4226684542031762	0.0	1.0690388693907127	-0.3600319375447155	0.0	1.0713433732719257	-0.39758223888713	0.0	1.010983634724742	-0.4384473737840972	0.0	0.947664124849003	-0.47825207411549203	0.0	0.8955479570054059	-0.5210159095225737	0.0	1.014832642988509	-0.43716314011080093	0.0	0.9531975712947609	-0.477705141790408	0.0	0.9070746020230687	-0.5177807866772521	0.0
27	0.9056962025316455	0.9707022038328142	-0.5671160535010121	0.0	0.9682350534233436	-0.5644278954629942	0.0	0.9853863422869762	-0.6765299434466864	0.0	0.9765212849585646	-0.7905726329197303	0.0	1.011817509401872	-0.804493079626106	0.0	1.0012326626012582	-0.8091488235189729	0.0	0.9652147004429745	-0.8049037512561651	0.0	0.9728131092941165	-0.5641399823641436	0.0	0.9849305366415084	-0.6740823072950834	0.0	0.9755500583338621	-0.7802180569968309	0.0	1.0136799622938264	-0.7951871660492733	0.0	1.01046485171185	-0.7935234004915367	0.0	0.9585772302804703	-0.7947536427032431	0.0	1.0269934130701588	-0.41930415203252186	0.0	1.0756097401992217	-0.3569051745411839	0.0	1.0758453173943026	-0.3945598205600564	0.0	1.0139479948085535	-0.4334148042412545	0.0	0.9459942066460574	-0.4636114494475787	0.0	0.886461405880918	-0.49738876176230634	0.0	1.0177338660904982	-0.4322475019695787	0.0	0.9504671487438401	-0.4628752085746586	0.0	0.8969442492274721	-0.49557366234646805	0.0
28	0.9392405063291138	0.968670442126581	-0.5603319841037917	0.0	0.9659889071448425	-0.5577329661646956	0.0	0.9840924673105813	-0.6703760485386441	0.0	0.9771503476900585	-0.7841558393826226	0.0	1.0142462583221112	-0.7989047672507315	0.0	1.004059251198358	-0.8036724363077464	0.0	0.9652418234049088	-0.7989252552542372	0.0	0.9708729411873054	-0.5573783535878116	0.0	0.9828165151215781	-0.6680943634645683	0.0	0.9755257748973897	-0.774091026281385	0.0	1.0144877136823804	-0.7893213825776575	0.0	1.0114820235301885	-0.7875935855925741	0.0	0.9579860502962688	-0.7890500493877685	0.0	1.0291030564560693	-0.41610354528308935	0.0	1.0820976195287555	-0.3546506573181731	0.0	1.0805039994580221	-0.39178031862404816	0.0	1.017089186938445	-0.4285449722384274	0.0	0.9460398258302398	-0.45009552987881063	0.0	0.8812121765803346	-0.47564217078423116	0.0	1.0202622425987584	-0.42732529429841504	0.0	0.9489257155007761	-0.44932483569250264	0.0	0.8906193863261113	-0.4751994651678772	0.0
29	0.9727848101265822	0.9659718924046048	-0.5543601329842033	0.0	0.963404426612755	-0.5516728786351645	0.0	0.9837324544536279	-0.6638696790266444	0.0	0.9781094446469296	-0.7781708016482142	0.0	1.0172276162722445	-0.7940722374793915	0.0	1.0073863388652002	-0.7988081349459549	0.0	0.9657395605359305	-0.7933813723499611	0.0	0.9679415313877248	-0.5512047797085785	0.0	0.9810356418819117	-0.6621136623273326	0.0	0.9753016959927121	-0.7688201252899936	0.0	1.015276498380258	-0.7842648061375446	0.0	1.012006856078017	-0.782222355397727	0.0	0.9576956683827611	-0.784111928885334	0.0	1.031196294805158	-0.41354615771278935	0.0	1.0883831437895497	-0.35375251206352976	0.0	1.0851321643205682	-0.3897249053875167	0.0	1.0203292605857777	-0.4244620016928157	0.0	0.9473781888391963	-0.4385126258934414	0.0	0.8788809717323587	-0.456719618770365	0.0	1.0225854799238319	-0.4230178564639878	0.0	0.9483337732159216	-0.437855350638722	0.0	0.8871705648237189	-0.4575246118915634	0.0
